<svg width="360" height="60" viewBox="0 0 360 60" fill="none" xmlns="http://www.w3.org/2000/svg">
<circle cx="330" cy="30" r="30" fill="#B5A3FF"/>
<path d="M321 33.8081H323V40.1616C323 40.7139 322.552 41.1616 322 41.1616V41.1616C321.448 41.1616 321 40.7139 321 40.1616V33.8081Z" fill="black"/>
<path d="M329 30.6566H331V40.1616C331 40.7139 330.552 41.1616 330 41.1616V41.1616C329.448 41.1616 329 40.7139 329 40.1616V30.6566Z" fill="black"/>
<path d="M321 19.0505C321 18.4982 321.448 18.0505 322 18.0505V18.0505C322.552 18.0505 323 18.4982 323 19.0505V28.5556H321V19.0505Z" fill="black"/>
<path d="M337 33.8081H339V40.1616C339 40.7139 338.552 41.1616 338 41.1616V41.1616C337.448 41.1616 337 40.7139 337 40.1616V33.8081Z" fill="black"/>
<path d="M337 19.0505C337 18.4982 337.448 18.0505 338 18.0505V18.0505C338.552 18.0505 339 18.4982 339 19.0505V28.5556H337V19.0505Z" fill="black"/>
<path d="M329 19.0505C329 18.4982 329.448 18.0505 330 18.0505V18.0505C330.552 18.0505 331 18.4982 331 19.0505V25.404H329V19.0505Z" fill="black"/>
<rect x="334" y="30.6566" width="8" height="5.25253" rx="2" fill="black"/>
<rect x="326" y="23.303" width="8" height="5.25253" rx="2" fill="black"/>
<rect x="318" y="30.6566" width="8" height="5.25253" rx="2" fill="black"/>
<circle cx="270" cy="30" r="30" fill="#B3EDFF"/>
<path d="M274 35.9091C272.423 35.9091 270.947 35.2605 269.851 34.1596" stroke="black" stroke-width="2" stroke-linecap="round" stroke-linejoin="round"/>
<path d="M265.155 25.4586C263.789 24.1015 261.956 23.303 260 23.303" stroke="black" stroke-width="2" stroke-linecap="round" stroke-linejoin="round"/>
<path d="M280.727 36.9508C281.328 36.5558 281.328 35.6739 280.727 35.2789L275.549 31.8793C274.884 31.4427 274 31.9197 274 32.7152V39.5146C274 40.3101 274.884 40.7871 275.549 40.3505L280.727 36.9508Z" fill="black"/>
<path d="M274 23.303V23.303C271.585 23.303 269.415 24.7768 268.525 27.0212L266.843 31.2613C265.731 34.0669 263.018 35.9091 260 35.9091V35.9091" stroke="black" stroke-width="2" stroke-linecap="round" stroke-linejoin="round"/>
<path d="M279.727 24.3447C280.328 23.9498 280.328 23.0678 279.727 22.6729L274.549 19.2732C273.884 18.8366 273 19.3136 273 20.1091V26.9085C273 27.704 273.884 28.181 274.549 27.7444L279.727 24.3447Z" fill="black"/>
<circle cx="210" cy="30" r="30" fill="#B1FFB9"/>
<path d="M219.727 23.2942C220.328 22.8993 220.328 22.0173 219.727 21.6224L214.549 18.2227C213.884 17.7861 213 18.2631 213 19.0586V25.858C213 26.6535 213.884 27.1305 214.549 26.6939L219.727 23.2942Z" fill="black"/>
<path d="M200.386 36.9508C199.785 36.5558 199.785 35.6739 200.386 35.2789L205.564 31.8793C206.229 31.4427 207.113 31.9197 207.113 32.7152V39.5146C207.113 40.3101 206.229 40.7871 205.564 40.3505L200.386 36.9508Z" fill="black"/>
<path d="M202 28.5556V28.2525C202 24.9388 204.686 22.2525 208 22.2525V22.2525H213" stroke="black" stroke-width="2" stroke-linecap="round" stroke-linejoin="round"/>
<path d="M217 29.6061V29.9091C217 33.2228 214.314 35.9091 211 35.9091V35.9091H206" stroke="black" stroke-width="2" stroke-linecap="round" stroke-linejoin="round"/>
<circle cx="150" cy="30" r="30" fill="#F2A3FF"/>
<path d="M146 28.5556C148.761 28.5556 151 26.2039 151 23.303C151 20.4021 148.761 18.0505 146 18.0505C143.239 18.0505 141 20.4021 141 23.303C141 26.2039 143.239 28.5556 146 28.5556Z" fill="black"/>
<path d="M138 38.6566C138 34.2383 141.582 30.6566 146 30.6566V30.6566C150.418 30.6566 154 34.2383 154 38.6566V39.1616C154 40.2662 153.105 41.1616 152 41.1616H140C138.895 41.1616 138 40.2662 138 39.1616V38.6566Z" fill="black"/>
<path d="M155 30.6566C156.657 30.6566 158 29.2456 158 27.505C158 25.7645 156.657 24.3535 155 24.3535C153.343 24.3535 152 25.7645 152 27.505C152 29.2456 153.343 30.6566 155 30.6566Z" fill="black"/>
<path d="M157 27.5051V19.101L160 20.1515" stroke="black" stroke-width="2" stroke-linecap="round" stroke-linejoin="round"/>
<circle cx="90" cy="30" r="30" fill="#FFB5AB"/>
<path fill-rule="evenodd" clip-rule="evenodd" d="M90 17C94.9706 17 99 21.2329 99 26.4545H94C94 24.1338 92.2091 22.2525 90 22.2525C87.7909 22.2525 86 24.1338 86 26.4545H81C81 21.2329 85.0294 17 90 17ZM92 26.4545C92 25.2942 91.1046 24.3535 90 24.3535C88.8954 24.3535 88 25.2942 88 26.4545H92Z" fill="black"/>
<path d="M79 28.5556H101V40.2121C101 41.3167 100.105 42.2121 99 42.2121H81C79.8954 42.2121 79 41.3167 79 40.2121V28.5556Z" fill="black"/>
<circle cx="30" cy="30" r="30" fill="#FFE279"/>
<path fill-rule="evenodd" clip-rule="evenodd" d="M20 25.404C18.8954 25.404 18 26.2995 18 27.404V40.2121C18 41.3167 18.8954 42.2121 20 42.2121H40C41.1046 42.2121 42 41.3167 42 40.2121V27.404C42 26.2995 41.1046 25.404 40 25.404H20ZM27.5 31.1384C27.5 30.361 28.3482 29.8809 29.0147 30.281L33.0717 32.7164C33.7188 33.1049 33.7188 34.0427 33.0717 34.4312L29.0147 36.8666C28.3482 37.2667 27.5 36.7866 27.5 36.0092V31.1384Z" fill="black"/>
<rect x="19" y="21.202" width="22" height="2.10101" rx="1" fill="black"/>
<rect x="20" y="17" width="20" height="2.10101" rx="1" fill="black"/>
</svg>
